PathFileType	4	(X/Y/Z)	/Users/nbianco/Projects/AddBiomechanics/hamner/residuals/addbio/results/subject01/results/MarkerData/run200.trc
DataRate	CameraRate	NumFrames	NumMarkers	Units	OrigDataRate	OrigDataStartFrame	OrigNumFrames
100	100	8	42	m	100	0	233
Frame#	Time	C7			CLAV			LACR			LASI			LCAL			LFAradius			LFAsuperior			LFAulna			LLEL			LMEL			LMT5			LPSI			LTB1			LTB2			LTB3			LTH1			LTH2			LTH3			LTOE			LUA1			LUA2			LUA3			RACR			RASI			RCAL			RFAradius			RFAsuperior			RFAulna			RLEL			RMEL			RMT5			RPSI			RTB1			RTB2			RTB3			RTH1			RTH2			RTH3			RTOE			RUA1			RUA2			RUA3		
		X1	Y1	Z1	X2	Y2	Z2	X3	Y3	Z3	X4	Y4	Z4	X5	Y5	Z5	X6	Y6	Z6	X7	Y7	Z7	X8	Y8	Z8	X9	Y9	Z9	X10	Y10	Z10	X11	Y11	Z11	X12	Y12	Z12	X13	Y13	Z13	X14	Y14	Z14	X15	Y15	Z15	X16	Y16	Z16	X17	Y17	Z17	X18	Y18	Z18	X19	Y19	Z19	X20	Y20	Z20	X21	Y21	Z21	X22	Y22	Z22	X23	Y23	Z23	X24	Y24	Z24	X25	Y25	Z25	X26	Y26	Z26	X27	Y27	Z27	X28	Y28	Z28	X29	Y29	Z29	X30	Y30	Z30	X31	Y31	Z31	X32	Y32	Z32	X33	Y33	Z33	X34	Y34	Z34	X35	Y35	Z35	X36	Y36	Z36	X37	Y37	Z37	X38	Y38	Z38	X39	Y39	Z39	X40	Y40	Z40	X41	Y41	Z41	X42	Y42	Z42

1	0.2	1.02092	1.59127	-0.356235	1.13459	1.51937	-0.312885	1.08728	1.57235	-0.507773	1.10674	1.07639	-0.472068	0.584807	0.291916	-0.396124	1.17002	1.28869	-0.507955	1.03549	1.23108	-0.625119	1.18523	1.21851	-0.522264	0.963028	1.26108	-0.653306	0.928569	1.24325	-0.567735	0.658101	0.0966775	-0.456055	0.943869	1.13822	-0.424208	0.92344	0.436073	-0.403263	0.793771	0.408219	-0.464868	0.759591	0.292462	-0.404153	1.04903	0.940768	-0.525718	0.945128	0.803002	-0.490947	0.976306	0.661844	-0.47518	0.712539	0.0957288	-0.359098	1.00158	1.47464	-0.580867	1.03551	1.39947	-0.600061	0.971422	1.33061	-0.635915	1.06759	1.55493	-0.189789	1.08548	1.08733	-0.230313	1.09923	0.0935483	-0.299063	0.990357	1.14832	-0.102071	0.849266	1.25477	-0.0564858	0.938515	1.11747	-0.0691335	0.789962	1.34447	-0.0800746	0.804724	1.31389	-0.164162	1.30233	0.0935936	-0.242163	0.930642	1.13502	-0.311306	1.20095	0.43755	-0.279489	1.12717	0.38134	-0.213104	1.19595	0.249387	-0.296702	1.02263	0.965955	-0.177401	1.01303	0.810095	-0.203266	1.09453	0.674529	-0.210124	1.33259	0.146148	-0.333446	0.927483	1.50131	-0.155177	0.941851	1.43533	-0.11121	0.846121	1.38883	-0.0942475
2	0.21	1.0206	1.58609	-0.354602	1.13443	1.51404	-0.312057	1.08631	1.56765	-0.506358	1.10628	1.07207	-0.472571	0.582774	0.302755	-0.396723	1.16782	1.28081	-0.507807	1.03151	1.22641	-0.624499	1.18154	1.21045	-0.522458	0.959413	1.25795	-0.652079	0.925285	1.24004	-0.566828	0.647108	0.10475	-0.458082	0.943408	1.1325	-0.4236	0.928699	0.431138	-0.403383	0.797432	0.410362	-0.465093	0.757911	0.295785	-0.40578	1.05042	0.935466	-0.524678	0.949218	0.795942	-0.489694	0.983654	0.655463	-0.474367	0.703622	0.101699	-0.361995	0.99966	1.47113	-0.579334	1.03294	1.39578	-0.598971	0.968144	1.32757	-0.634665	1.06801	1.54927	-0.188643	1.08568	1.08227	-0.229833	1.08979	0.0918107	-0.299602	0.994143	1.14354	-0.100762	0.852206	1.24841	-0.0545076	0.942902	1.11205	-0.067643	0.791794	1.33747	-0.077682	0.806226	1.30693	-0.161794	1.29226	0.0831332	-0.243956	0.930515	1.12938	-0.310818	1.19861	0.430907	-0.279809	1.12426	0.376029	-0.213041	1.18999	0.242945	-0.297136	1.02211	0.96077	-0.176504	1.01348	0.804671	-0.203102	1.09611	0.669906	-0.210565	1.32415	0.135274	-0.335109	0.928032	1.49522	-0.153156	0.942965	1.42928	-0.109577	0.847494	1.38233	-0.0920537
3	0.22	1.0201	1.57989	-0.353063	1.13419	1.50765	-0.311339	1.08508	1.56189	-0.50501	1.10601	1.06674	-0.4729	0.582131	0.313076	-0.3966	1.16532	1.27111	-0.507642	1.02705	1.22044	-0.623928	1.17747	1.20063	-0.523168	0.955392	1.25372	-0.650703	0.922039	1.23571	-0.565803	0.638708	0.113607	-0.460864	0.942851	1.12586	-0.422895	0.934847	0.425778	-0.404493	0.802042	0.412343	-0.465318	0.75761	0.298932	-0.407478	1.05158	0.929445	-0.523821	0.95341	0.78811	-0.488445	0.991203	0.648439	-0.474009	0.697049	0.107889	-0.365636	0.997532	1.46645	-0.577843	1.03018	1.39082	-0.597788	0.964651	1.3233	-0.633291	1.06846	1.54254	-0.187517	1.08576	1.07625	-0.229221	1.07723	0.0914228	-0.300936	0.99852	1.13741	-0.0994327	0.855781	1.24058	-0.0521465	0.947976	1.10525	-0.0659528	0.794201	1.32894	-0.074787	0.808022	1.29849	-0.158763	1.27837	0.0715006	-0.244928	0.930226	1.12252	-0.310151	1.19574	0.423036	-0.279646	1.11969	0.369839	-0.21326	1.18202	0.235203	-0.297471	1.02153	0.954653	-0.175815	1.01337	0.798427	-0.203347	1.09711	0.664347	-0.210698	1.31309	0.120961	-0.33658	0.928719	1.4879	-0.150709	0.944473	1.42188	-0.107772	0.849393	1.3743	-0.0894219
4	0.23	1.01934	1.57274	-0.351648	1.13391	1.50028	-0.31069	1.08354	1.55518	-0.503849	1.10594	1.06037	-0.472646	0.583068	0.322765	-0.395882	1.16246	1.25966	-0.507506	1.0221	1.21321	-0.623433	1.17297	1.18915	-0.524376	0.950979	1.24841	-0.649239	0.918541	1.23033	-0.564606	0.632865	0.122913	-0.464257	0.942146	1.11841	-0.422152	0.94184	0.420079	-0.406435	0.807612	0.414019	-0.465467	0.758737	0.301749	-0.409199	1.05249	0.92273	-0.523037	0.957733	0.779482	-0.487315	0.998891	0.640767	-0.474174	0.692587	0.113953	-0.36994	0.99509	1.46057	-0.576327	1.02723	1.38459	-0.596537	0.960991	1.31778	-0.631835	1.06893	1.53481	-0.186348	1.08576	1.06945	-0.228341	1.06212	0.0919598	-0.303018	1.00349	1.12994	-0.0980942	0.85998	1.23131	-0.0494259	0.953701	1.0971	-0.0640674	0.797176	1.31891	-0.0714429	0.81022	1.28861	-0.155208	1.26165	0.0608638	-0.245048	0.92969	1.1148	-0.309233	1.19293	0.414615	-0.27936	1.11419	0.363403	-0.214055	1.17258	0.226853	-0.298049	1.021	0.947627	-0.175393	1.0128	0.791729	-0.203745	1.09768	0.658015	-0.210522	1.29965	0.105613	-0.337846	0.929546	1.4794	-0.147927	0.946368	1.41317	-0.105755	0.851811	1.36478	-0.086386
5	0.24	1.0183	1.56486	-0.350383	1.13366	1.49215	-0.310047	1.08162	1.54772	-0.503118	1.10596	1.05312	-0.471661	0.585779	0.331667	-0.394778	1.15923	1.24652	-0.50751	1.0167	1.2048	-0.623049	1.168	1.17611	-0.526031	0.946191	1.24207	-0.647751	0.914469	1.22406	-0.563168	0.629392	0.132199	-0.468026	0.941222	1.11034	-0.421552	0.949583	0.414241	-0.408732	0.814189	0.415182	-0.465484	0.761318	0.304092	-0.410905	1.05316	0.915372	-0.522071	0.962217	0.770036	-0.486422	1.00664	0.632516	-0.474788	0.690025	0.119528	-0.37477	0.992207	1.4535	-0.574729	1.02409	1.37715	-0.595268	0.95719	1.31106	-0.630323	1.06939	1.52622	-0.18501	1.08569	1.06215	-0.227198	1.04526	0.0928634	-0.305281	1.00904	1.12119	-0.0967202	0.864796	1.22069	-0.0463856	0.960028	1.08766	-0.0620456	0.800722	1.30745	-0.067732	0.812988	1.27735	-0.15134	1.24356	0.0538156	-0.244623	0.929011	1.1068	-0.308409	1.1909	0.406871	-0.27977	1.10934	0.358027	-0.215518	1.16245	0.219388	-0.299373	1.02045	0.940039	-0.175119	1.01221	0.785144	-0.20389	1.09836	0.651449	-0.210223	1.28417	0.0929023	-0.338945	0.930471	1.46973	-0.144959	0.948649	1.40318	-0.103478	0.854741	1.35386	-0.0830072
6	0.25	1.01712	1.55675	-0.349236	1.13343	1.48371	-0.309385	1.07932	1.53979	-0.502972	1.10579	1.04538	-0.470407	0.590303	0.339653	-0.393503	1.15562	1.23173	-0.507758	1.01086	1.19535	-0.622794	1.16248	1.1616	-0.528046	0.94103	1.23488	-0.646273	0.909811	1.21713	-0.561496	0.628164	0.141111	-0.471967	0.939989	1.10197	-0.421308	0.95798	0.408559	-0.410846	0.821857	0.41574	-0.465476	0.765349	0.30599	-0.412573	1.05367	0.907535	-0.520737	0.966848	0.759937	-0.485794	1.01441	0.62396	-0.475571	0.689462	0.124533	-0.379927	0.98887	1.44537	-0.573059	1.0207	1.36866	-0.59404	0.953196	1.30329	-0.628715	1.06981	1.51707	-0.183412	1.0854	1.0546	-0.226078	1.02736	0.0938833	-0.306927	1.01514	1.11121	-0.0952772	0.870226	1.20881	-0.0431017	0.966929	1.07697	-0.0600104	0.804879	1.2947	-0.063743	0.816437	1.26484	-0.147296	1.22509	0.0509818	-0.244181	0.928439	1.09905	-0.308453	1.18969	0.400774	-0.281644	1.10658	0.354827	-0.217236	1.15206	0.214223	-0.301596	1.01961	0.932602	-0.17473	1.01215	0.779008	-0.203573	1.09992	0.645346	-0.210059	1.26714	0.0848769	-0.339917	0.931441	1.45891	-0.141746	0.951357	1.39194	-0.101	0.85822	1.34159	-0.0793898
7	0.26	1.0161	1.54909	-0.348111	1.13317	1.47552	-0.308758	1.07679	1.53173	-0.503277	1.10498	1.03769	-0.469386	0.596523	0.346615	-0.392274	1.15166	1.21538	-0.508294	1.00459	1.18508	-0.622626	1.15633	1.14564	-0.53035	0.935505	1.22716	-0.644808	0.904812	1.20982	-0.559691	0.629378	0.149414	-0.475957	0.938304	1.09377	-0.421452	0.967018	0.403305	-0.412546	0.830684	0.415827	-0.4657	0.770862	0.307612	-0.41417	1.05414	0.89964	-0.519192	0.971538	0.749737	-0.485346	1.02223	0.615639	-0.476254	0.691211	0.129088	-0.38511	0.985224	1.43662	-0.57137	1.01701	1.35957	-0.592882	0.948919	1.29481	-0.626917	1.07007	1.50784	-0.181646	1.08451	1.04711	-0.2252	1.00889	0.0950263	-0.307625	1.02181	1.10004	-0.0938132	0.876288	1.19574	-0.0396876	0.974423	1.06513	-0.0580963	0.809759	1.28088	-0.0595771	0.82059	1.25128	-0.143129	1.20647	0.0507975	-0.244059	0.927823	1.09172	-0.309652	1.18847	0.396241	-0.284916	1.10575	0.35368	-0.218639	1.14119	0.211519	-0.304231	1.01827	0.92596	-0.174112	1.01275	0.773213	-0.203033	1.10262	0.640048	-0.210121	1.24925	0.080754	-0.340763	0.9325	1.44705	-0.137913	0.954589	1.37962	-0.0985488	0.862342	1.32807	-0.0757012
8	0.27	1.01544	1.54231	-0.346965	1.1328	1.46801	-0.308266	1.07422	1.52389	-0.503678	1.10319	1.03072	-0.468481	0.604236	0.352444	-0.391316	1.14732	1.19759	-0.509075	0.997811	1.1743	-0.622441	1.14936	1.12842	-0.53297	0.929664	1.21941	-0.64334	0.899671	1.20252	-0.557825	0.633479	0.156886	-0.479918	0.936023	1.08619	-0.421713	0.976795	0.398678	-0.413928	0.840655	0.415746	-0.466339	0.777933	0.309112	-0.415655	1.05452	0.892356	-0.517934	0.97612	0.740309	-0.484902	1.03017	0.608226	-0.476783	0.695535	0.133268	-0.389933	0.981504	1.42794	-0.569689	1.01301	1.35055	-0.591756	0.944324	1.2862	-0.624824	1.07005	1.49907	-0.179995	1.08267	1.04024	-0.224324	0.990127	0.0962378	-0.307697	1.02914	1.08775	-0.0924874	0.883056	1.18155	-0.036252	0.982596	1.05227	-0.0563981	0.815547	1.26626	-0.0553454	0.825474	1.23701	-0.138889	1.18755	0.0511955	-0.244232	0.926356	1.0848	-0.311054	1.18607	0.392157	-0.288507	1.10491	0.353142	-0.219513	1.12931	0.21	-0.306487	1.0166	0.920201	-0.173452	1.01354	0.767449	-0.202816	1.10574	0.635277	-0.210329	1.23105	0.078369	-0.341488	0.933846	1.43443	-0.133091	0.958429	1.36664	-0.0964317	0.86722	1.31354	-0.0721347
